<svg width="78" height="78" viewBox="0 0 78 78" fill="none" xmlns="http://www.w3.org/2000/svg">
<rect width="78" height="78" rx="6.96428" fill="#45CFDD"/>
<path d="M33.428 44.5718H23.678C23.3086 44.5718 22.9543 44.4251 22.6931 44.1639C22.4319 43.9027 22.2852 43.5484 22.2852 43.179V34.8218C22.2852 34.4524 22.4319 34.0982 22.6931 33.8369C22.9543 33.5757 23.3086 33.429 23.678 33.429H33.428V23.679C33.428 23.3096 33.5748 22.9553 33.836 22.6941C34.0972 22.4329 34.4515 22.2861 34.8209 22.2861H43.178C43.5474 22.2861 43.9017 22.4329 44.1629 22.6941C44.4241 22.9553 44.5709 23.3096 44.5709 23.679V33.429H54.3209C54.6903 33.429 55.0446 33.5757 55.3058 33.8369C55.567 34.0982 55.7137 34.4524 55.7137 34.8218V43.179C55.7137 43.5484 55.567 43.9027 55.3058 44.1639C55.0446 44.4251 54.6903 44.5718 54.3209 44.5718H44.5709V54.3218C44.5709 54.6913 44.4241 55.0455 44.1629 55.3067C43.9017 55.568 43.5474 55.7147 43.178 55.7147H34.8209C34.4515 55.7147 34.0972 55.568 33.836 55.3067C33.5748 55.0455 33.428 54.6913 33.428 54.3218V44.5718Z" stroke="#F6FDFD" stroke-width="2.78571" stroke-linecap="round" stroke-linejoin="round"/>
</svg>
