<svg width="78" height="78" viewBox="0 0 78 78" fill="none" xmlns="http://www.w3.org/2000/svg">
<rect width="78" height="78" rx="6.96428" fill="#F7DE5E"/>
<path d="M33.4297 43.1797H44.5725" stroke="#F6FDFD" stroke-width="2.78571" stroke-linecap="round" stroke-linejoin="round"/>
<path d="M33.4297 37.6074H44.5725" stroke="#F6FDFD" stroke-width="2.78571" stroke-linecap="round" stroke-linejoin="round"/>
<path d="M44.5723 23.6797H51.5365C51.906 23.6797 52.2602 23.8264 52.5214 24.0876C52.7827 24.3489 52.9294 24.7031 52.9294 25.0725V54.3225C52.9294 54.692 52.7827 55.0462 52.5214 55.3074C52.2602 55.5687 51.906 55.7154 51.5365 55.7154H26.4651C26.0957 55.7154 25.7414 55.5687 25.4802 55.3074C25.219 55.0462 25.0723 54.692 25.0723 54.3225V25.0725C25.0723 24.7031 25.219 24.3489 25.4802 24.0876C25.7414 23.8264 26.0957 23.6797 26.4651 23.6797H33.4294" stroke="#F6FDFD" stroke-width="2.78571" stroke-linecap="round" stroke-linejoin="round"/>
<path d="M32.0361 29.2497V27.8569C32.0361 26.0098 32.7699 24.2384 34.0759 22.9324C35.382 21.6263 37.1534 20.8926 39.0004 20.8926C40.8475 20.8926 42.6189 21.6263 43.9249 22.9324C45.231 24.2384 45.9647 26.0098 45.9647 27.8569V29.2497H32.0361Z" stroke="#F6FDFD" stroke-width="2.78571" stroke-linecap="round" stroke-linejoin="round"/>
</svg>
