<svg width="78" height="78" viewBox="0 0 78 78" fill="none" xmlns="http://www.w3.org/2000/svg">
<rect width="78" height="78" rx="6.96428" fill="#A17AF0"/>
<path d="M22.2861 39.0008H29.2504L32.0361 34.8223L37.6076 43.1794L40.3933 39.0008H44.5718" stroke="#F6FDFD" stroke-width="2.78571" stroke-linecap="round" stroke-linejoin="round"/>
<path d="M21.6073 33.4297C21.5898 33.2034 21.5898 32.9596 21.5898 32.7333C21.5898 30.6403 22.315 28.612 23.6419 26.9934C24.9688 25.3748 26.8155 24.266 28.8679 23.8555C30.9202 23.4451 33.0513 23.7583 34.8987 24.742C36.7461 25.7258 38.1956 27.3192 39.0006 29.2511V29.2511C39.8055 27.3192 41.255 25.7258 43.1024 24.742C44.9498 23.7583 47.0809 23.4451 49.1333 23.8555C51.1856 24.266 53.0323 25.3748 54.3592 26.9934C55.6861 28.612 56.4113 30.6403 56.4113 32.7333C56.4113 44.5726 39.0006 54.3226 39.0006 54.3226C39.0006 54.3226 32.0537 50.4226 26.9349 44.5726" stroke="#F6FDFD" stroke-width="2.78571" stroke-linecap="round" stroke-linejoin="round"/>
</svg>
