<svg width="182" height="36" viewBox="0 0 182 36" fill="none" xmlns="http://www.w3.org/2000/svg">
<rect y="0.149414" width="35.701" height="35.701" rx="6.0553" fill="#8554E8"/>
<path d="M14.7146 13.7605C14.562 13.3695 14.3598 12.9973 14.1819 12.6167C13.6484 11.7431 13.1235 10.8649 12.3829 10.1455C12.1815 9.94682 11.9603 9.76936 11.7226 9.6159C10.9836 9.14895 10.2844 9.24919 9.68958 9.88763C9.2608 10.3674 8.94468 10.9369 8.76436 11.5546C8.33534 12.8902 8.16423 14.2649 8.64931 15.6119C9.13438 16.9588 10.0669 17.9709 11.4678 18.4369C13.0375 18.959 14.4874 18.15 14.9153 16.5481C15.152 15.6217 15.0816 14.6435 14.7146 13.7605Z" fill="white"/>
<path d="M21.9961 12.8043C22.3687 11.1602 21.9847 9.68186 20.7911 8.48755C19.6817 7.37096 18.2053 6.69413 16.6353 6.58238C16.3529 6.56251 16.0691 6.58142 15.7918 6.63859C15.0335 6.78453 14.6233 7.25277 14.5559 8.02304C14.4886 8.7933 14.6999 9.53436 14.9716 10.2581C15.1726 10.7956 15.4116 11.3199 15.6324 11.8506C16.096 12.8075 16.6802 13.6603 17.5853 14.2555C18.1454 14.6485 18.8109 14.8638 19.4951 14.8733C20.0874 14.8727 20.661 14.6658 21.1174 14.2882C21.5738 13.9107 21.8844 13.386 21.9961 12.8043Z" fill="white"/>
<path d="M27.6766 16.8433C28.6706 15.5706 28.814 14.1545 28.2509 12.6491C28.1789 12.486 28.0969 12.3275 28.0051 12.1746C27.4845 11.1998 26.7858 10.3845 25.8054 9.84743C25.7135 9.7967 25.6187 9.7515 25.5213 9.71207C24.5483 9.32529 23.8084 9.61944 23.364 10.5681C23.064 11.2687 22.9058 12.0219 22.8985 12.784C22.8564 13.7817 22.8575 14.7765 23.2534 15.7192C23.4805 16.2944 23.8513 16.8018 24.3304 17.1929C25.4187 18.0649 26.8229 17.9356 27.6766 16.8433Z" fill="white"/>
<path d="M13.8435 27.6356C13.8956 27.7876 13.9673 27.9175 14.0491 28.1018C14.8015 29.4064 16.002 29.9565 17.5067 29.8623C19.0966 29.7644 20.4039 29.0297 21.4926 27.9096C22.1812 27.1811 23.0912 26.7005 24.0812 26.5425C25.5982 26.2862 26.9194 25.6367 27.9088 24.4301C28.7383 23.4158 29.0764 22.2658 28.6563 20.9798C28.4959 20.501 28.239 20.0601 27.9015 19.6844C27.564 19.3087 27.153 19.0062 26.6941 18.7955C26.1787 18.5431 25.6356 18.3518 25.0758 18.2255C23.8546 17.9589 22.6856 17.4936 21.6152 16.8481C21.1065 16.5311 20.5382 16.3216 19.9454 16.2327C19.3526 16.1438 18.7479 16.1774 18.1685 16.3312C17.5892 16.4851 17.0475 16.756 16.5769 17.1273C16.1063 17.4986 15.7168 17.9624 15.4324 18.4901C15.0575 19.1681 14.8741 19.9354 14.9019 20.7096C14.9346 21.7317 14.706 22.7452 14.2376 23.6542C13.6567 24.7991 13.4191 26.0046 13.7334 27.2793C13.762 27.4004 13.7988 27.5194 13.8435 27.6356Z" fill="white"/>
<path d="M7.35226 22.893C8.20755 24.4681 9.40618 25.2854 11.0399 25.3848C12.7118 25.4914 13.8475 24.2704 13.6467 22.6478C13.574 22.0827 13.3666 21.5434 13.0419 21.0752C12.2813 19.9602 11.1767 19.2737 10.0014 18.693C9.57786 18.4888 9.12824 18.3439 8.6652 18.2624C7.71268 18.0894 7.06356 18.5443 6.8315 19.4882C6.63404 20.3149 6.7454 21.1309 6.9882 21.9291C7.10561 22.3067 7.2747 22.6665 7.35226 22.893Z" fill="white"/>
<path d="M17.3781 22.8291C17.2241 22.5127 17.1937 22.1521 17.2927 21.8152C17.3506 21.6219 17.4498 21.4429 17.5837 21.2899C17.7176 21.137 17.8832 21.0137 18.0694 20.9281C18.7374 20.6163 19.6385 21.0726 20.0294 21.6657C19.8042 20.994 20.0061 20.0207 20.6741 19.7089C20.8588 19.622 21.0604 19.5745 21.2653 19.5697C21.4702 19.5649 21.6738 19.6029 21.8625 19.681C22.1877 19.8175 22.451 20.0653 22.603 20.3781C23.1001 21.3919 22.4114 22.4058 21.9324 23.4476L21.4146 24.5426L20.2262 24.241C19.1103 23.9545 17.8752 23.8455 17.3781 22.8291Z" fill="#8554E8"/>
<path d="M48.103 16.7541C48.6874 16.7541 49.1326 16.622 49.4387 16.3576C49.7588 16.0793 49.9188 15.6619 49.9188 15.1054C49.9188 14.5766 49.7518 14.1731 49.4179 13.8949C49.0979 13.6027 48.6248 13.4566 47.9987 13.4566C47.776 13.4566 47.5882 13.4635 47.4352 13.4775C47.296 13.4775 47.1499 13.4914 46.9969 13.5192V16.7541H48.103ZM47.0177 23.4536C46.8647 23.4954 46.6212 23.5371 46.2873 23.5789C45.9673 23.6206 45.6472 23.6415 45.3272 23.6415C45.0072 23.6415 44.722 23.6136 44.4715 23.558C44.235 23.5162 44.0332 23.4328 43.8663 23.3075C43.6993 23.1823 43.5741 23.0084 43.4906 22.7858C43.4071 22.5631 43.3654 22.271 43.3654 21.9092V12.0791C43.3654 11.7869 43.4419 11.5643 43.595 11.4113C43.7619 11.2443 43.9845 11.1121 44.2628 11.0147C44.7359 10.8478 45.2716 10.7295 45.8699 10.6599C46.4821 10.5764 47.0943 10.5347 47.7065 10.5347C49.6266 10.5347 51.0945 10.9452 52.1102 11.7661C53.1259 12.587 53.6337 13.7001 53.6337 15.1054C53.6337 15.7871 53.5224 16.4063 53.2998 16.9629C53.0911 17.5055 52.7711 17.9786 52.3398 18.3821C51.9223 18.7716 51.3867 19.0777 50.7327 19.3004C50.0927 19.5091 49.3483 19.6134 48.4996 19.6134H47.0177V23.4536ZM59.3583 21.2831C59.5949 21.2831 59.8523 21.2622 60.1305 21.2205C60.4227 21.1648 60.6384 21.0952 60.7775 21.0118V19.3421L59.2748 19.4673C58.8853 19.4952 58.5652 19.5786 58.3148 19.7178C58.0643 19.8569 57.9391 20.0656 57.9391 20.3439C57.9391 20.6222 58.0435 20.8518 58.2522 21.0326C58.4748 21.1996 58.8435 21.2831 59.3583 21.2831ZM59.1914 13.0809C59.9427 13.0809 60.6245 13.1574 61.2367 13.3105C61.8628 13.4635 62.3915 13.7001 62.8229 14.0201C63.2681 14.3262 63.609 14.7227 63.8455 15.2097C64.082 15.6828 64.2003 16.2463 64.2003 16.9002V21.5753C64.2003 21.937 64.096 22.2362 63.8873 22.4727C63.6925 22.6953 63.4559 22.8901 63.1777 23.0571C62.2733 23.5997 61.0002 23.871 59.3583 23.871C58.6209 23.871 57.953 23.8015 57.3547 23.6623C56.7704 23.5232 56.2625 23.3145 55.8312 23.0362C55.4138 22.7579 55.0868 22.4031 54.8503 21.9718C54.6276 21.5405 54.5163 21.0396 54.5163 20.4691C54.5163 19.5091 54.8016 18.7716 55.372 18.2568C55.9425 17.742 56.826 17.422 58.0226 17.2968L60.7567 17.0046V16.8585C60.7567 16.455 60.5758 16.1698 60.214 16.0028C59.8662 15.8219 59.3583 15.7315 58.6905 15.7315C58.1617 15.7315 57.6469 15.7871 57.146 15.8985C56.6451 16.0098 56.1929 16.1489 55.7894 16.3159C55.6086 16.1906 55.4555 16.0028 55.3303 15.7524C55.2051 15.488 55.1425 15.2167 55.1425 14.9384C55.1425 14.5766 55.2259 14.2914 55.3929 14.0827C55.5738 13.8601 55.8451 13.6723 56.2069 13.5192C56.6104 13.3661 57.0834 13.2548 57.6261 13.1853C58.1826 13.1157 58.7044 13.0809 59.1914 13.0809ZM72.0082 23.224C71.8134 23.391 71.5491 23.5232 71.2151 23.6206C70.8812 23.7319 70.4847 23.7876 70.0255 23.7876C69.455 23.7876 68.9611 23.7041 68.5437 23.5371C68.1263 23.3841 67.848 23.1614 67.7089 22.8692C67.5558 22.5353 67.3749 22.0066 67.1662 21.2831C66.9714 20.5596 66.7766 19.7665 66.5819 18.9038C66.3871 18.0412 66.1992 17.1646 66.0183 16.2741C65.8514 15.3836 65.7192 14.5975 65.6218 13.9157C65.8166 13.7209 66.074 13.554 66.394 13.4148C66.7279 13.2618 67.0897 13.1853 67.4793 13.1853C67.9663 13.1853 68.3628 13.2966 68.6689 13.5192C68.9889 13.7279 69.1837 14.0966 69.2533 14.6253C69.3924 15.6828 69.5107 16.5594 69.6081 17.255C69.7055 17.9368 69.782 18.5003 69.8377 18.9456C69.9072 19.3769 69.9559 19.7108 69.9838 19.9474C70.0255 20.17 70.0603 20.3509 70.0881 20.49H70.1716C70.2133 20.2674 70.2829 19.9474 70.3803 19.5299C70.4916 19.0986 70.6168 18.6116 70.756 18.069C70.8951 17.5264 71.0412 16.942 71.1943 16.3159C71.3473 15.6758 71.5004 15.0428 71.6534 14.4166C71.9317 14.2636 72.203 14.1453 72.4674 14.0618C72.7456 13.9784 73.0865 13.9366 73.49 13.9366C73.977 13.9366 74.3944 14.0131 74.7423 14.1662C75.0901 14.3192 75.3127 14.5558 75.4101 14.8758C75.5771 15.488 75.7371 16.0863 75.8902 16.6707C76.0432 17.2411 76.1823 17.7768 76.3076 18.2777C76.4328 18.7647 76.5441 19.203 76.6415 19.5926C76.7389 19.9682 76.8085 20.2674 76.8502 20.49H76.9546C77.1076 19.4186 77.2537 18.3055 77.3928 17.1507C77.5459 15.9958 77.685 14.8201 77.8103 13.6236C78.0607 13.4705 78.3251 13.3592 78.6033 13.2896C78.8816 13.2201 79.1599 13.1853 79.4382 13.1853C79.9252 13.1853 80.3286 13.2896 80.6487 13.4983C80.9687 13.707 81.1287 14.0688 81.1287 14.5836C81.1287 14.8062 81.0939 15.1402 81.0243 15.5854C80.9548 16.0306 80.8643 16.5315 80.753 17.0881C80.6417 17.6446 80.5095 18.229 80.3565 18.8412C80.2173 19.4534 80.0712 20.0448 79.9182 20.6152C79.7791 21.1857 79.6399 21.7005 79.5008 22.1596C79.3756 22.6188 79.2642 22.9736 79.1669 23.224C78.9721 23.391 78.6729 23.5232 78.2694 23.6206C77.8659 23.7319 77.4346 23.7876 76.9754 23.7876C75.8067 23.7876 75.1179 23.4954 74.9092 22.911C74.8258 22.6605 74.7214 22.3475 74.5962 21.9718C74.471 21.5822 74.3388 21.1579 74.1996 20.6987C74.0605 20.2395 73.9283 19.7665 73.8031 19.2795C73.6779 18.7786 73.5735 18.2986 73.49 17.8394C73.3926 18.3264 73.2744 18.8343 73.1352 19.363C72.9961 19.8778 72.85 20.3856 72.697 20.8865C72.5578 21.3735 72.4256 21.8257 72.3004 22.2431C72.1752 22.6466 72.0778 22.9736 72.0082 23.224ZM91.293 20.5109C91.293 21.5683 90.8965 22.3962 90.1034 22.9945C89.3103 23.5928 88.1416 23.8919 86.5971 23.8919C86.0127 23.8919 85.4701 23.8502 84.9692 23.7667C84.4683 23.6832 84.037 23.558 83.6752 23.391C83.3274 23.2101 83.0491 22.9875 82.8404 22.7232C82.6456 22.4588 82.5482 22.1457 82.5482 21.784C82.5482 21.45 82.6178 21.1718 82.7569 20.9491C82.8961 20.7126 83.063 20.5178 83.2578 20.3648C83.6613 20.5874 84.1205 20.7891 84.6353 20.97C85.164 21.137 85.7693 21.2205 86.451 21.2205C86.8824 21.2205 87.2093 21.1579 87.4319 21.0326C87.6685 20.9074 87.7867 20.7404 87.7867 20.5317C87.7867 20.3369 87.7033 20.1839 87.5363 20.0726C87.3693 19.9613 87.0911 19.8708 86.7015 19.8013L86.0754 19.676C84.8649 19.4395 83.9605 19.0708 83.3622 18.5699C82.7778 18.0551 82.4856 17.3246 82.4856 16.3785C82.4856 15.8637 82.5969 15.3976 82.8195 14.9801C83.0422 14.5627 83.3552 14.2149 83.7587 13.9366C84.1622 13.6583 84.6422 13.4427 85.1988 13.2896C85.7693 13.1366 86.3954 13.06 87.0771 13.06C87.592 13.06 88.072 13.1018 88.5172 13.1853C88.9764 13.2548 89.3729 13.3661 89.7068 13.5192C90.0408 13.6723 90.3051 13.874 90.4999 14.1244C90.6947 14.361 90.7921 14.6462 90.7921 14.9801C90.7921 15.3002 90.7295 15.5784 90.6043 15.815C90.493 16.0376 90.3469 16.2254 90.166 16.3785C90.0547 16.3089 89.8877 16.2393 89.6651 16.1698C89.4425 16.0863 89.199 16.0167 88.9346 15.9611C88.6703 15.8915 88.399 15.8358 88.1207 15.7941C87.8563 15.7524 87.6128 15.7315 87.3902 15.7315C86.9311 15.7315 86.5763 15.7871 86.3258 15.8985C86.0754 15.9958 85.9501 16.1559 85.9501 16.3785C85.9501 16.5315 86.0197 16.6568 86.1588 16.7541C86.298 16.8515 86.5623 16.942 86.9519 17.0255L87.5989 17.1716C88.9346 17.4777 89.8808 17.902 90.4373 18.4447C91.0078 18.9734 91.293 19.6621 91.293 20.5109ZM92.9248 10.5764C92.9248 10.0477 93.0988 9.60248 93.4466 9.24072C93.8084 8.87896 94.2814 8.69808 94.8658 8.69808C95.4502 8.69808 95.9163 8.87896 96.2641 9.24072C96.6259 9.60248 96.8068 10.0477 96.8068 10.5764C96.8068 11.1052 96.6259 11.5504 96.2641 11.9122C95.9163 12.2739 95.4502 12.4548 94.8658 12.4548C94.2814 12.4548 93.8084 12.2739 93.4466 11.9122C93.0988 11.5504 92.9248 11.1052 92.9248 10.5764ZM96.6398 23.5162C96.4868 23.5441 96.2572 23.5789 95.9511 23.6206C95.6589 23.6762 95.3597 23.7041 95.0536 23.7041C94.7475 23.7041 94.4693 23.6832 94.2188 23.6415C93.9823 23.5997 93.7805 23.5162 93.6136 23.391C93.4466 23.2658 93.3144 23.0988 93.217 22.8901C93.1335 22.6675 93.0918 22.3823 93.0918 22.0344V13.5401C93.2449 13.5122 93.4675 13.4775 93.7597 13.4357C94.0658 13.3801 94.3719 13.3522 94.678 13.3522C94.9841 13.3522 95.2554 13.3731 95.4919 13.4148C95.7424 13.4566 95.9511 13.5401 96.118 13.6653C96.285 13.7905 96.4102 13.9644 96.4937 14.1871C96.5911 14.3958 96.6398 14.674 96.6398 15.0219V23.5162ZM102.447 20.0517C102.447 20.4135 102.558 20.6709 102.781 20.8239C103.017 20.977 103.344 21.0535 103.761 21.0535C103.97 21.0535 104.186 21.0396 104.408 21.0118C104.631 20.97 104.826 20.9213 104.993 20.8657C105.118 21.0187 105.222 21.1926 105.306 21.3874C105.403 21.5683 105.452 21.7909 105.452 22.0553C105.452 22.584 105.25 23.0153 104.847 23.3493C104.457 23.6832 103.761 23.8502 102.76 23.8502C101.535 23.8502 100.589 23.5719 99.9212 23.0153C99.2673 22.4588 98.9403 21.5544 98.9403 20.3022V11.3695C99.0934 11.3278 99.309 11.286 99.5873 11.2443C99.8795 11.1886 100.186 11.1608 100.506 11.1608C101.118 11.1608 101.591 11.2721 101.925 11.4947C102.273 11.7035 102.447 12.1557 102.447 12.8513V14.1871H105.181C105.264 14.3401 105.341 14.5349 105.41 14.7714C105.494 14.9941 105.535 15.2445 105.535 15.5228C105.535 16.0098 105.424 16.3646 105.202 16.5872C104.993 16.7959 104.708 16.9002 104.346 16.9002H102.447V20.0517ZM107.171 10.5764C107.171 10.0477 107.345 9.60248 107.693 9.24072C108.055 8.87896 108.528 8.69808 109.112 8.69808C109.697 8.69808 110.163 8.87896 110.511 9.24072C110.873 9.60248 111.053 10.0477 111.053 10.5764C111.053 11.1052 110.873 11.5504 110.511 11.9122C110.163 12.2739 109.697 12.4548 109.112 12.4548C108.528 12.4548 108.055 12.2739 107.693 11.9122C107.345 11.5504 107.171 11.1052 107.171 10.5764ZM110.886 23.5162C110.733 23.5441 110.504 23.5789 110.198 23.6206C109.906 23.6762 109.606 23.7041 109.3 23.7041C108.994 23.7041 108.716 23.6832 108.465 23.6415C108.229 23.5997 108.027 23.5162 107.86 23.391C107.693 23.2658 107.561 23.0988 107.464 22.8901C107.38 22.6675 107.338 22.3823 107.338 22.0344V13.5401C107.492 13.5122 107.714 13.4775 108.006 13.4357C108.312 13.3801 108.619 13.3522 108.925 13.3522C109.231 13.3522 109.502 13.3731 109.739 13.4148C109.989 13.4566 110.198 13.5401 110.365 13.6653C110.532 13.7905 110.657 13.9644 110.74 14.1871C110.838 14.3958 110.886 14.674 110.886 15.0219V23.5162ZM119.928 23.2658C119.733 23.4188 119.448 23.5441 119.072 23.6415C118.697 23.7389 118.272 23.7876 117.799 23.7876C117.257 23.7876 116.784 23.718 116.38 23.5789C115.991 23.4397 115.719 23.2171 115.566 22.911C115.441 22.6745 115.288 22.3475 115.107 21.9301C114.94 21.4987 114.759 21.0257 114.564 20.5109C114.37 19.9821 114.168 19.4186 113.959 18.8203C113.75 18.2221 113.549 17.6307 113.354 17.0463C113.173 16.462 113.006 15.8985 112.853 15.3558C112.7 14.8132 112.575 14.3332 112.477 13.9157C112.672 13.7209 112.93 13.554 113.25 13.4148C113.584 13.2618 113.945 13.1853 114.335 13.1853C114.822 13.1853 115.218 13.2896 115.524 13.4983C115.845 13.6931 116.081 14.0688 116.234 14.6253L117.048 17.8186C117.201 18.4447 117.347 19.0151 117.486 19.5299C117.625 20.0308 117.73 20.4204 117.799 20.6987H117.904C118.168 19.6691 118.446 18.5282 118.739 17.2759C119.031 16.0237 119.295 14.7923 119.532 13.5818C119.768 13.4566 120.033 13.3592 120.325 13.2896C120.631 13.2201 120.923 13.1853 121.201 13.1853C121.688 13.1853 122.099 13.2896 122.433 13.4983C122.767 13.707 122.934 14.0688 122.934 14.5836C122.934 14.8062 122.878 15.1332 122.767 15.5645C122.669 15.9819 122.537 16.462 122.37 17.0046C122.217 17.5333 122.029 18.0968 121.807 18.6951C121.598 19.2934 121.382 19.8778 121.16 20.4483C120.937 21.0187 120.714 21.5544 120.492 22.0553C120.283 22.5423 120.095 22.9458 119.928 23.2658ZM129.78 23.871C128.959 23.871 128.194 23.7597 127.484 23.5371C126.788 23.3006 126.176 22.9527 125.648 22.4936C125.133 22.0344 124.722 21.457 124.416 20.7613C124.124 20.0656 123.978 19.2517 123.978 18.3194C123.978 17.4011 124.124 16.615 124.416 15.9611C124.722 15.2932 125.119 14.7506 125.606 14.3332C126.093 13.9018 126.649 13.5888 127.275 13.394C127.902 13.1853 128.542 13.0809 129.196 13.0809C129.933 13.0809 130.601 13.1922 131.199 13.4148C131.811 13.6375 132.333 13.9436 132.764 14.3332C133.21 14.7227 133.551 15.1889 133.787 15.7315C134.038 16.2741 134.163 16.8655 134.163 17.5055C134.163 17.9786 134.031 18.3403 133.766 18.5908C133.502 18.8412 133.133 19.0012 132.66 19.0708L127.505 19.843C127.658 20.3022 127.971 20.65 128.444 20.8865C128.917 21.1092 129.46 21.2205 130.072 21.2205C130.643 21.2205 131.178 21.1509 131.679 21.0118C132.194 20.8587 132.611 20.6848 132.931 20.49C133.154 20.6291 133.342 20.8239 133.495 21.0744C133.648 21.3248 133.725 21.5892 133.725 21.8675C133.725 22.4936 133.432 22.9597 132.848 23.2658C132.403 23.5023 131.902 23.6623 131.345 23.7458C130.789 23.8293 130.267 23.871 129.78 23.871ZM129.196 15.6689C128.862 15.6689 128.569 15.7245 128.319 15.8358C128.082 15.9472 127.888 16.0932 127.735 16.2741C127.582 16.4411 127.463 16.6359 127.38 16.8585C127.31 17.0672 127.269 17.2829 127.255 17.5055L130.823 16.9211C130.782 16.6428 130.629 16.3646 130.364 16.0863C130.1 15.808 129.71 15.6689 129.196 15.6689ZM146.769 13.4357C145.698 13.4357 144.877 13.7627 144.306 14.4166C143.736 15.0706 143.451 15.9958 143.451 17.1924C143.451 18.4029 143.764 19.3352 144.39 19.9891C145.03 20.643 145.886 20.97 146.957 20.97C147.527 20.97 148.007 20.8935 148.397 20.7404C148.801 20.5874 149.183 20.4135 149.545 20.2187C149.781 20.4135 149.962 20.65 150.088 20.9283C150.227 21.1926 150.296 21.5057 150.296 21.8675C150.296 22.4379 149.976 22.9249 149.336 23.3284C148.71 23.718 147.75 23.9128 146.456 23.9128C145.524 23.9128 144.647 23.7806 143.826 23.5162C143.005 23.2519 142.289 22.8484 141.677 22.3057C141.065 21.7492 140.578 21.0535 140.216 20.2187C139.868 19.3699 139.694 18.3612 139.694 17.1924C139.694 16.1072 139.861 15.1541 140.195 14.3332C140.543 13.4983 141.009 12.7957 141.593 12.2252C142.192 11.6548 142.887 11.2234 143.68 10.9312C144.473 10.6391 145.322 10.493 146.227 10.493C147.507 10.493 148.494 10.7017 149.19 11.1191C149.9 11.5365 150.255 12.0722 150.255 12.7261C150.255 13.0879 150.164 13.4009 149.983 13.6653C149.802 13.9297 149.594 14.1384 149.357 14.2914C148.995 14.0549 148.606 13.8531 148.188 13.6862C147.785 13.5192 147.312 13.4357 146.769 13.4357ZM156.313 21.2831C156.55 21.2831 156.807 21.2622 157.085 21.2205C157.377 21.1648 157.593 21.0952 157.732 21.0118V19.3421L156.23 19.4673C155.84 19.4952 155.52 19.5786 155.27 19.7178C155.019 19.8569 154.894 20.0656 154.894 20.3439C154.894 20.6222 154.998 20.8518 155.207 21.0326C155.43 21.1996 155.798 21.2831 156.313 21.2831ZM156.146 13.0809C156.897 13.0809 157.579 13.1574 158.191 13.3105C158.818 13.4635 159.346 13.7001 159.778 14.0201C160.223 14.3262 160.564 14.7227 160.8 15.2097C161.037 15.6828 161.155 16.2463 161.155 16.9002V21.5753C161.155 21.937 161.051 22.2362 160.842 22.4727C160.647 22.6953 160.411 22.8901 160.132 23.0571C159.228 23.5997 157.955 23.871 156.313 23.871C155.576 23.871 154.908 23.8015 154.309 23.6623C153.725 23.5232 153.217 23.3145 152.786 23.0362C152.369 22.7579 152.042 22.4031 151.805 21.9718C151.582 21.5405 151.471 21.0396 151.471 20.4691C151.471 19.5091 151.756 18.7716 152.327 18.2568C152.897 17.742 153.781 17.422 154.977 17.2968L157.711 17.0046V16.8585C157.711 16.455 157.531 16.1698 157.169 16.0028C156.821 15.8219 156.313 15.7315 155.645 15.7315C155.116 15.7315 154.602 15.7871 154.101 15.8985C153.6 16.0098 153.148 16.1489 152.744 16.3159C152.563 16.1906 152.41 16.0028 152.285 15.7524C152.16 15.488 152.097 15.2167 152.097 14.9384C152.097 14.5766 152.181 14.2914 152.348 14.0827C152.529 13.8601 152.8 13.6723 153.162 13.5192C153.565 13.3661 154.038 13.2548 154.581 13.1853C155.137 13.1157 155.659 13.0809 156.146 13.0809ZM166.872 23.5162C166.733 23.558 166.511 23.5997 166.205 23.6415C165.912 23.6832 165.606 23.7041 165.286 23.7041C164.98 23.7041 164.702 23.6832 164.451 23.6415C164.215 23.5997 164.013 23.5162 163.846 23.391C163.679 23.2658 163.547 23.0988 163.45 22.8901C163.366 22.6675 163.324 22.3823 163.324 22.0344V15.7732C163.324 15.4532 163.38 15.1819 163.491 14.9593C163.617 14.7227 163.791 14.514 164.013 14.3332C164.236 14.1523 164.507 13.9923 164.827 13.8531C165.161 13.7001 165.516 13.5679 165.892 13.4566C166.267 13.3453 166.657 13.2618 167.06 13.2061C167.464 13.1366 167.867 13.1018 168.271 13.1018C168.939 13.1018 169.467 13.234 169.857 13.4983C170.247 13.7488 170.441 14.1662 170.441 14.7506C170.441 14.9454 170.414 15.1402 170.358 15.3349C170.302 15.5158 170.233 15.6828 170.149 15.8358C169.857 15.8358 169.558 15.8498 169.252 15.8776C168.946 15.9054 168.646 15.9472 168.354 16.0028C168.062 16.0585 167.784 16.1211 167.519 16.1906C167.269 16.2463 167.053 16.3159 166.872 16.3993V23.5162ZM176.882 23.871C176.061 23.871 175.295 23.7597 174.586 23.5371C173.89 23.3006 173.278 22.9527 172.749 22.4936C172.234 22.0344 171.824 21.457 171.518 20.7613C171.226 20.0656 171.08 19.2517 171.08 18.3194C171.08 17.4011 171.226 16.615 171.518 15.9611C171.824 15.2932 172.22 14.7506 172.707 14.3332C173.194 13.9018 173.751 13.5888 174.377 13.394C175.003 13.1853 175.643 13.0809 176.297 13.0809C177.035 13.0809 177.702 13.1922 178.301 13.4148C178.913 13.6375 179.435 13.9436 179.866 14.3332C180.311 14.7227 180.652 15.1889 180.889 15.7315C181.139 16.2741 181.264 16.8655 181.264 17.5055C181.264 17.9786 181.132 18.3403 180.868 18.5908C180.604 18.8412 180.235 19.0012 179.762 19.0708L174.607 19.843C174.76 20.3022 175.073 20.65 175.546 20.8865C176.019 21.1092 176.562 21.2205 177.174 21.2205C177.744 21.2205 178.28 21.1509 178.781 21.0118C179.296 20.8587 179.713 20.6848 180.033 20.49C180.256 20.6291 180.443 20.8239 180.597 21.0744C180.75 21.3248 180.826 21.5892 180.826 21.8675C180.826 22.4936 180.534 22.9597 179.95 23.2658C179.504 23.5023 179.003 23.6623 178.447 23.7458C177.89 23.8293 177.369 23.871 176.882 23.871ZM176.297 15.6689C175.963 15.6689 175.671 15.7245 175.421 15.8358C175.184 15.9472 174.989 16.0932 174.836 16.2741C174.683 16.4411 174.565 16.6359 174.481 16.8585C174.412 17.0672 174.37 17.2829 174.356 17.5055L177.925 16.9211C177.883 16.6428 177.73 16.3646 177.466 16.0863C177.202 15.808 176.812 15.6689 176.297 15.6689Z" fill="#8554E8"/>
</svg>
