<?xml version="1.0" standalone="no"?>
<svg xmlns:xlink="http://www.w3.org/1999/xlink" id="wave" style="transform:rotate(180deg); transition: 0.3s" viewBox="0 0 1440 100" version="1.1" xmlns="http://www.w3.org/2000/svg"><defs><linearGradient id="sw-gradient-0" x1="0" x2="0" y1="1" y2="0"><stop stop-color="rgba(245, 240, 254, 1)" offset="0%"/><stop stop-color="rgba(245, 240, 254, 1)" offset="100%"/></linearGradient></defs><path style="transform:translate(0, 0px); opacity:1" fill="url(#sw-gradient-0)" d="M0,40L30,41.7C60,43,120,47,180,53.3C240,60,300,70,360,76.7C420,83,480,87,540,78.3C600,70,660,50,720,36.7C780,23,840,17,900,20C960,23,1020,37,1080,46.7C1140,57,1200,63,1260,61.7C1320,60,1380,50,1440,45C1500,40,1560,40,1620,45C1680,50,1740,60,1800,68.3C1860,77,1920,83,1980,86.7C2040,90,2100,90,2160,80C2220,70,2280,50,2340,36.7C2400,23,2460,17,2520,21.7C2580,27,2640,43,2700,43.3C2760,43,2820,27,2880,23.3C2940,20,3000,30,3060,40C3120,50,3180,60,3240,53.3C3300,47,3360,23,3420,18.3C3480,13,3540,27,3600,30C3660,33,3720,27,3780,25C3840,23,3900,27,3960,30C4020,33,4080,37,4140,35C4200,33,4260,27,4290,23.3L4320,20L4320,100L4290,100C4260,100,4200,100,4140,100C4080,100,4020,100,3960,100C3900,100,3840,100,3780,100C3720,100,3660,100,3600,100C3540,100,3480,100,3420,100C3360,100,3300,100,3240,100C3180,100,3120,100,3060,100C3000,100,2940,100,2880,100C2820,100,2760,100,2700,100C2640,100,2580,100,2520,100C2460,100,2400,100,2340,100C2280,100,2220,100,2160,100C2100,100,2040,100,1980,100C1920,100,1860,100,1800,100C1740,100,1680,100,1620,100C1560,100,1500,100,1440,100C1380,100,1320,100,1260,100C1200,100,1140,100,1080,100C1020,100,960,100,900,100C840,100,780,100,720,100C660,100,600,100,540,100C480,100,420,100,360,100C300,100,240,100,180,100C120,100,60,100,30,100L0,100Z"/></svg>